<svg width="42" height="42" xmlns="http://www.w3.org/2000/svg"><g fill="none" fill-rule="evenodd"><circle fill="#FFF" cx="21" cy="21" r="21"/><path d="M24.497 24.604c-.045.136-.054.346.14.584a.119.119 0 00.132.035c.183-.09.241.105.344-.066.084.028.153-.043.188-.088.039-.009.074-.011.128-.027.412-.333.768-.764 1.225-1.05.308-.07 1.081-.729.87-1.127-1.187-.932-3 .218-3.027 1.74zm5.46-8.449c-.172-1.634-1.802.004-1.48.98-.036.373.28.547.602.527.264.031.358-.288.447-.479.062-.15.121-.29.23-.384.06-.053.05-.165.066-.216.108-.123.142-.13.08-.306a.113.113 0 00.054-.122zm-1.427 2.851c-.814.032-1.433.56-1.667 1.375-.075.15-.192.99.29 1.073.532.135.84-.389 1.078-.763.169-.085.238-.284.363-.399.285-.063.333-.501.329-.714a.114.114 0 00.039-.11c-.053-.267-.17-.392-.432-.462zm10.01-5.414c-1.35.32-.747 1.82.124 2.31.883-.197.427-2.121-.125-2.31zm-.58 2.858c-1.258.054-1.514 2.335-.55 2.9 1.185.035 1.244-2.485.55-2.9zm-1.086 3.74c-.064-.03-.114.039-.174.039a.242.242 0 00-.154.057c-.769.1-1.342 1.399-.976 2.025.046.211.025.544.274.643 1.048.31 2.01-2.339 1.03-2.764zm-1.246 4.34c-.18-.204-.33-.168-.467-.164-.672-.134-1.364.589-1.496 1.282-.04.2.071.684.142.955a.114.114 0 00.123.086c.99.19 1.951-1.273 1.698-2.158zm-1.57-3.343l.002-.01c.064-.277-.014-.6-.084-.885-.079-.323-.147-.603-.014-.799a.116.116 0 01.148-.037.459.459 0 01.048-.022c.099-.108.256-.166.408-.222.135-.049.273-.099.363-.179l.01-.007c.966-.715.586-2.224.43-2.715a.122.122 0 01-.038-.049c-.03-.025-.046-.064-.046-.121v-.016c-.121-.18-.093-.354.082-.516a.109.109 0 01.087-.032c.563.038.916-.198 1.043-.703.111-.429.042-1.024-.186-1.592-.225-.562-.558-.988-.89-1.143a.113.113 0 01-.047-.037.337.337 0 00-.031-.044.091.091 0 01-.017.028c-.11.146-.068.453-.142.635-.733 1.273.439 2.969-.078 2.872-1.219-.389-1.992-2.334-1.377-3.46.268-.41.944-.638 1.385-.384-.012-.014-.021-.029-.033-.044-.551-.725-1.175-1.549-.952-2.635.004-.018.023-.03.025-.05.047-.518.398-1.257.438-1.804A19.298 19.298 0 0021 1.643c-9.07 0-16.809 6.442-18.84 14.944a.715.715 0 01.444.348c.443.854.215 1.981.016 2.976-.065.318-.125.617-.163.896l.039.237c.139.887.332 2.1 1.372 2.103.026 0 .049.008.068.023.017.012.047.027.076.044.09.049.183.1.208.192l.001.01c.345.283.752 1.116.822 1.454.014.03.034.064.052.1.077.143.122.233.116.308a.64.64 0 00.034.064c.02.04.044.083.058.123.026.005.05.02.066.039.711-.217 1.324-.08 1.82.404.449.438.757 1.113.977 1.685a.06.06 0 01.022.005.11.11 0 01.075.087c.004.013.005.03.009.063l.001.014.003.001c.514-.22 1.028-.282 1.494-.179.515.114.972.43 1.322.912.05.07.095.149.14.223.085.151.174.306.284.335a.131.131 0 01.06.042c.172.228.271.273.504.301.186-.036.487-.024.72 0 .435-.076 1.038-.081 1.446.129a.12.12 0 01.06.076c.196.067.38.29.543.493.054.066.104.13.144.172l.004.002c.483.545 1.287.804 2.05.66.707-.134 1.248-.58 1.482-1.224l.009-.02c.23-.392.654-.723 1.193-.928a2.914 2.914 0 011.64-.145c.033.008.06.03.077.058l.004.007.035-.001a.43.43 0 01.117.007.12.12 0 01.075.057c0 .003.002.005.003.006.008.002.021.002.031.003a.423.423 0 01.167.033.13.13 0 01.032.022c.572.54 1.396.82 2.097.715.572-.083 1.043-.418 1.357-.965.076-.145.11-.31.144-.485.031-.155.063-.315.128-.474l.002-.006a2.75 2.75 0 01.156-.274c.072-.117.148-.24.188-.344a.114.114 0 01.106-.073.096.096 0 01.016-.01.115.115 0 01.087-.059c.089-.011.25-.135.367-.225.079-.06.152-.119.217-.153.001-.003.005-.004.007-.006.285-.128.602-.266.909-.402l.46-.2a.11.11 0 01.102.005c.01 0 .027-.004.04-.01a.113.113 0 01-.002-.047.115.115 0 01.06-.085.318.318 0 00.073-.044.298.298 0 00-.005-.041c-.005-.035-.013-.081-.014-.143a2.327 2.327 0 01.086-1.402c.165-.438.457-.83.82-1.104.672-.504 1.502-.564 2.245-.168.012-.003.026-.01.045-.018a.114.114 0 01.102.005.12.12 0 01.047.05c.527.142 1.04.074 1.452-.191.46-.298.765-.817.853-1.463zm-.86 7.56c-.047-.111-.19-.123-.291-.17a.115.115 0 00-.154-.046c-.403-.236-1.38.388-1.328.834-.064.1-.073.65-.01.725.072.105.117.233.234.257.688.045 1.763-.886 1.549-1.6zm-1.325-2.88c.456-.66.664-1.644.098-2.353-.049-.123-.519.14-.564.248-.086.005-.201.022-.23.122a3.074 3.074 0 00-1.717 1.522c-.096.104-.285.328-.3.471-.845.884 1.756 1.605 2.713-.01zm-2.654 1.886c-.176.076-.582.039-.759.1-.546.173-1.262.544-1.528 1.103-.045.013-.086.044-.095.092-.055.242-.4.577-.374.826.196.511 1.21.528 1.684.35.812-.047 2.504-2.436 1.072-2.47zm-2.627 4.122c-.055-.127-.385-.292-.578-.35-1.03-.42-2.193.45-2.125 1.48.86.738 2.787-.071 2.703-1.13zm-3.924 3.121c-.1-.554-1.003-.502-.97-.217-.071.03-.241.2-.127.309-.022.08-.07.169-.01.247-.02.058.013.117.065.144-.003.05.03.101.077.116.015.076.1.125.171.09a.812.812 0 00.656-.2c.33-.107.26-.217.138-.489zm.09-4.222c-.885-.605-2.605-.502-3.367.23-.4.098-.488.286-.49.43.613 1.761 3.959 1.251 3.857-.66zm-3.597 3.23a.11.11 0 00-.001-.094.113.113 0 00-.08-.064c-.118-.036-.176-.258-.315-.281-.028-.147-.185-.094-.274-.178-.171-.163-.483-.131-.683-.182-.407.046-.97.087-1.257.453-.09.076-.204.157-.205.275-.462.6.984.941 1.398.915.462-.002 1.642-.237 1.417-.844zm-4.408-2.007c-.556-.767-2.303-.947-3.036-.113.262 1.137 1.748 1.655 2.85 1.257.55-.23.731-.834.186-1.144zm-4.168 1.313c-.152.042-.302.125-.344.32a.115.115 0 00-.05.073c-.331.631.733 1.168 1.225.95.453-.423-.082-1.371-.83-1.343zm-.168-1.948c.487-.035.8-.365.882-.93a.115.115 0 00-.075-.124c-.23-.112-.378-.558-.639-.658-.247-.513-2.111-.834-2.493-.525-.15 1.073 1.13 2.252 2.325 2.237zm-2.106.27c-.123-.346-.33-.624-.564-.761-.16-.09-.392-.083-.557-.125-.132-.023-.193.133-.322.18-.498.216-.139.847.143 1.165.321.335.79.54 1.255.548.288-.151.142-.659.045-1.007zM7.02 29.311c.374 0 .687-.217.89-.626-.21-.695-.682-1.224-1.025-1.527-.409-.324-.95-.497-1.692-.674-.684.92.778 2.836 1.827 2.827zm-2.358-.398c-1.448.195-.01 2.002.7 1.647.301-.636.273-1.583-.7-1.647zm.052-1.932c.23-1.212-.628-2.364-1.815-2.605a.116.116 0 00-.134.076c-.302.906.676 3.644 1.949 2.53zm30.645-16.338a2.2 2.2 0 00.73 1.34c.16.166.206.416.548.422 1.478-.51-.02-3.028-.975-3.33-.385.147-.343 1.25-.303 1.568zM42 21.001c0 6.704-3.142 12.676-8.034 16.52a20.241 20.241 0 01-1.015.75 22.439 22.439 0 01-1.062.69 21.039 21.039 0 01-3.427 1.675c-.32.122-.645.235-.97.342l-.247.079a20.96 20.96 0 01-1.502.406c-.085.02-.17.037-.254.056a20.919 20.919 0 01-4.488.481 21.219 21.219 0 01-4.488-.48l-.255-.057C6.944 39.313 0 30.966 0 21c0-.08.001-.163.003-.243v-.065l.003-.201c.002-.014.002-.03.002-.045l.007-.239c.002-.019.002-.038.003-.058.003-.064.005-.129.01-.19 0-.021 0-.043.002-.062.003-.079.009-.157.014-.237l.001-.039.014-.202c.003-.022.004-.045.005-.066l.02-.222.001-.016a13.181 13.181 0 01.028-.3c.007-.064.015-.127.021-.191.003-.016.004-.034.006-.05.01-.076.017-.155.027-.231l.008-.057.025-.184a.518.518 0 00.007-.064l.035-.228.005-.036.031-.199.012-.067.035-.2.005-.032.041-.225c.005-.022.01-.044.013-.066l.036-.178a64.733 64.733 0 00.058-.28l.013-.056.039-.174.015-.068.053-.22a.54.54 0 01.008-.03c.015-.065.03-.13.047-.195l.02-.068.046-.18.013-.045a3.34 3.34 0 01.06-.214l.017-.069c.017-.054.032-.11.048-.163l.02-.063.064-.212a.411.411 0 00.016-.056l.054-.165.022-.07.067-.2c.004-.012.01-.025.013-.038.02-.063.043-.125.063-.187l.026-.072a22.377 22.377 0 00.077-.217l.078-.202c.007-.023.016-.045.025-.068.02-.05.04-.1.058-.15l.027-.07c.028-.066.053-.133.082-.199l.022-.057.064-.154.03-.072.074-.172.024-.051a4.11 4.11 0 01.08-.18l.032-.074c.021-.048.045-.097.067-.144.01-.021.019-.043.03-.062l.09-.193.032-.066.068-.14.035-.071.096-.189.027-.054.076-.145c.012-.025.025-.048.039-.074l.08-.15.027-.05c.032-.06.067-.12.1-.181l.04-.07.075-.135c.013-.022.026-.042.036-.064l.106-.18.04-.065a6.894 6.894 0 01.118-.201c.038-.058.074-.117.111-.177.004-.034.01-.04.02-.03C6.897 3.944 13.487 0 21 0c3.186 0 6.207.711 8.911 1.98l.008.004.28.134.07.034.122.061.068.034.236.121c.015.01.032.017.049.026l.12.064.07.038c.04.02.082.042.121.065l.058.031.222.125c.02.012.044.023.064.036l.118.069a20.69 20.69 0 01.639.387c.022.01.044.025.065.039l.21.135c.02.012.038.025.057.038l.114.073.067.045c.037.026.074.05.112.075a11.435 11.435 0 01.259.18l.067.045.107.078.067.047.244.18c.003.002.005.005.008.006l.106.08.067.051c.036.026.07.053.104.079.022.017.045.033.066.051l.181.142.066.053.1.081c.023.018.046.036.069.056l.1.08c.02.019.042.038.064.055l.17.145c.024.018.046.04.07.06.031.025.064.054.094.08.024.021.047.04.07.063l.155.136.076.069c.03.028.062.055.091.083l.07.063.09.084.072.07c.049.045.098.091.147.139l.073.07.085.084.073.07.083.084.096.098.116.118.072.075.08.085.074.077a10.372 10.372 0 01.205.222c.026.028.05.057.076.084.025.027.048.052.071.08l.076.085c.027.03.056.061.081.092.039.044.075.087.111.13.027.028.052.058.077.088l.074.086.07.087.07.082.123.15c.02.027.043.055.064.08l.074.094.067.085.076.098.082.106c.03.042.063.085.095.127l.062.082.072.098.06.083.095.13c.023.034.048.068.072.101.026.04.052.075.077.111.021.029.039.056.058.085.024.035.05.071.072.106.019.024.037.051.055.077l.11.168c.017.027.035.051.05.078.025.036.05.074.073.111l.053.081.08.125.055.09c.03.048.062.097.091.149.017.025.033.054.05.08l.069.115.046.079.105.178.037.067.073.129.046.08.07.128.038.07c.033.062.067.122.099.184l.039.074.067.128.04.08.078.155.034.068.082.168.037.078.065.133c.011.026.023.049.033.075.031.064.06.13.09.193.008.02.017.043.028.062.022.049.042.098.065.147.012.025.022.053.034.078.022.05.042.1.064.148l.026.061.082.2.03.07c.02.048.039.097.057.145l.03.076.074.19.017.047c.024.06.045.12.068.18.01.026.02.05.027.075.018.052.038.102.054.152.01.023.017.045.025.067l.072.209.02.06c.017.053.037.106.053.16l.025.074c.017.058.036.116.054.172l.014.048.066.214.02.07c.017.052.031.105.047.16.006.024.014.045.02.07l.061.218c.001.009.005.02.008.032.018.064.035.127.05.19l.02.074c.014.055.028.112.04.169l.016.06.053.22.013.059c.014.058.026.116.038.172l.017.072.04.195.008.035.045.225.013.067.03.173.014.067c.014.077.025.152.038.23l.007.035.032.196c.002.025.006.048.009.074a7.77 7.77 0 01.036.237l.03.229.007.06.024.182c.002.022.003.047.006.07l.024.216.002.02c.009.08.017.157.023.237.003.021.003.045.005.068l.016.18c0 .023.003.044.005.066l.016.236c.002.014.002.028.003.043l.012.199.002.072.01.195v.049c.004.08.007.158.008.238.002.02.002.042.002.062a5.83 5.83 0 01.005.257l.001.239V21zm-8.011-4.092c.211-.44.77-.987.546-1.434-.108-.22-.388-.327-.828-.315-1.045.154-1.467 1.035-1.372 2.045.07.801.471 1.733.886 1.733.24.008.394-.302.419-.805-.057-.462.14-.833.349-1.224zm-1.684 1.979c-1.629.08-2.256 2.628-1.082 3.625.32.13.5-.362.668-.769.071-.385.31-.74.558-1.037 1.08-.794 1.553-1.738-.144-1.82zm-1.589-4.748c.284-.393.535-2.15-.172-2.314-.95.291-.924 1.645-.45 2.378.052.073.135.048.22.088.092.031.194.068.253-.028a.38.38 0 00.15-.124zm-7.12 11.692c-.67.06-1.377.524-1.72 1.124-.266.467-.294.96-.078 1.426.028.062.098.072.16.07.53-.007 1.139-.66 1.771-.821.136-.05.275-.1.401-.156 2.462-.206 1.121-1.636-.535-1.643zm8.7-17.613c.27.246 1.04.79 1.206.355a.116.116 0 00-.084-.1c-.046-.018-.166-.17-.223-.243-.295-.351-.756-.654-.759-1.356-.087-.36-.2-.63-.357-.999a.113.113 0 00-.074-.064c-.416-.116-.617.085-.702.216-.417.893.338 1.55.993 2.19zm-.258 3.187c.094.023.196-.088.16-.179.174-.258-.104-.64-.2-.915.014-.142-.06-.404-.09-.505.066-.287.008-.537-.11-.782-.08-.25-.274-.626-.64-.482-.957.66-.13 2.613.88 2.863zM8.892 23.334c-.45-.04-.807.129-1.005.475-.092.172.086.355.241.517a.999.999 0 01.14.164.117.117 0 00.097.09c.149.015.21.207.377.183.06-.02.264.099.33.138.33.168.731.324.96.59.199.12.473.167.628.009.209-.226.008-.727-.134-1.01-.209-.567-.955-1.096-1.634-1.156zm-5.438-4.47c-.362.042-.631.458-.37.75.554.922 1.071 1.421 1.062 2.61.001.046.03.087.073.104.326 0 .489-.704.527-1.155.084-.912-.29-2.297-1.292-2.308zm19.796 3.849c-.306-.61-1.64-.224-2.077.307-.327.465-.147.672.17.96.071.073.194.057.285.065.52 0 .957-.345 1.419-.487.271-.214.332-.626.203-.845zM5.655 21.065c-1.247.442.355 1.421.777 1.956.2.313.444 1.04.889.808.609-.726-.64-3.114-1.666-2.764zM29.959 5.853c.113-.006.198-.139.188-.192.028-.216-.478-.388-.61-.54-.21-.542-.351-.997-1.025-1.207a.114.114 0 00-.126.041c-.634.906.945 1.764 1.573 1.898zm-13.955 21.37c-1.29.066-2.33 2.211-1.055 2 .56-.022 1.173-.2 1.764-.19.442-.052.78.231 1.225.182 1.694.27-.36-2.37-1.934-1.993zm5.138-1.584c-.305-.682-1.673-.943-2.256-.692-.502.118-1.072.508-1.13 1.129.138.641 1.263.42 1.831.31.453-.018 1.001.16 1.371-.23.085.018.155-.077.132-.154a.418.418 0 00.052-.363zM15.74 24.52c.267.036.6.1.826-.066.1-.078.237-.288.138-.42.08-.766-1.53-1.119-1.904-.362-.143.065.122.58.223.698.255.174.444.076.717.15zm-1.8 1.654c.298.335.434.724.392 1.128-.039.155-.237.123-.381.138-.234 0-.498-.059-.67-.185-.456-.168-1.209-.169-1.707-.277-1.483-.449-.114-1.522.676-1.541.644.008 1.29.291 1.69.737z" fill="#DC0F0F"/></g></svg>